<svg enable-background="new 0 0 1043 322" viewBox="0 0 1043 322" xmlns="http://www.w3.org/2000/svg"><path d="m11 248.2v-227c0-2.2.8-4.1 2.3-5.6s3.4-2.3 5.6-2.3h90.6c34.7 0 63.2 10.2 85.3 30.5 11.9 11.1 21 24.2 27.2 39.5s9.3 32.4 9.3 51.4-3.1 36.2-9.3 51.6-15.3 28.6-27.2 39.7c-11.1 10-23.7 17.5-38 22.6s-30 7.6-47.3 7.6h-90.5c-2.2 0-4.1-.8-5.6-2.3-1.6-1.6-2.4-3.5-2.4-5.7zm73.7-53.1h24.9c6.2 0 12.6-.8 19.2-2.3s12.6-4.5 17.9-8.8 9.7-10.4 13.1-18.3c3.4-7.8 5.1-18.1 5.1-30.7s-1.7-22.8-5.1-30.7c-3.4-7.8-7.9-13.9-13.3-18.3-5.4-4.3-11.4-7.2-17.9-8.8-6.5-1.5-12.9-2.3-19.1-2.3h-24.8c-2.2 0-4.1.8-5.6 2.3s-2.3 3.4-2.3 5.6v104.2c0 2.2.8 4.1 2.3 5.6 1.5 1.7 3.4 2.5 5.6 2.5z" fill="#2a317a"/><g stroke-miterlimit="10"><path d="m508.9 148.3h-3.1-3.1-29.4c-8.6 0-12.8-3.9-12.8-11.7v-16.9h29 3.1 2.9 29.2c9.4 0 14.2 4.4 14.2 13.3v15.3z" fill="#2a317a" stroke="#2a317a" stroke-width="2.2387"/><path d="m1010.3 39.1c10.5 0 15.7 5.2 15.7 15.7v77.7 71.8c0 13.8-1.3 25.8-3.9 36.2-2.6 10.3-9.3 21.6-20.2 33.7-19.3 21.3-42.5 32-69.4 32-22.6 0-41.6-6.1-57.1-18.4s-26.1-27.8-32-46.5h37.9c10.5 20 27.5 30 51.2 30 17.1 0 31.8-6.9 44.3-20.7 7.5-8.5 11.9-15.7 13-21.6s1.7-13.8 1.7-23.6c-17.7 13.8-37.4 20.7-59 20.7-25.9 0-48-9.1-66.2-27.3s-27.3-40.3-27.3-66.2v-77.8c0-10.5 5.2-15.7 15.7-15.7h18.7v93.5c0 16.4 5.7 30.3 17.2 41.8s25.4 17.2 41.8 17.2c16.1 0 29.9-5.7 41.6-17.2 11.6-11.5 17.5-25.4 17.5-41.8v-46.8-46.7z" fill="#fff" stroke="#fff" stroke-width="18.4245"/><path d="m408.9 70.4c-17.7-17.6-38.7-26.4-63.3-26.4-24.9 0-46 8.8-63.5 26.4s-26.2 38.7-26.2 63.2c0 24.9 8.7 46 26.2 63.5s38.6 26.2 63.5 26.2c24.5 0 45.6-8.7 63.2-26.2s26.4-38.6 26.4-63.5c.1-24.5-8.7-45.5-26.3-63.2zm-23.4 103.4c-11.2 11-24.5 16.5-39.9 16.5-15.7 0-29.1-5.5-40.1-16.5s-16.5-24.4-16.5-40.1c0-15.4 5.5-28.7 16.5-39.9s24.4-16.8 40.1-16.8c15.4 0 28.7 5.6 39.9 16.8s16.8 24.5 16.8 39.9c-.1 15.7-5.6 29.1-16.8 40.1z" fill="#2a317a" stroke="#2a317a" stroke-width="29.1282"/><path d="m785 61.1c13.8 13.6 20.7 30.1 20.7 49.4v1.7 1.2 21.9 7.4 5.9 17 46.2c0 10.5-5.4 15.7-16.2 15.7h-18.7v-56.8-57.3c0-10.5-3.4-19.5-10.3-27.1-6.9-7.5-15.1-11.3-24.6-11.3-9.8 0-18.1 3.8-24.8 11.3s-10.1 16.6-10.1 27.1v30.3 12.5 12.5c-.3 18.2-.6 36.5-.9 54.7-11.6 0-23.2 0-34.8 0 .3-18.1.5-36.1.8-54.2v-11.6-11.6-30-2.5c0-9.8-3.3-18.7-9.8-26.6-6.6-7.9-14.9-11.8-25.1-11.8-9.8 0-18.1 3.8-24.8 11.3s-10.1 16.6-10.1 27.1v57.3 56.8h-18.7c-10.8 0-16.2-5.2-16.2-15.7v-50.7-50.7c0-19.3 6.8-35.8 20.4-49.4s30.1-20.4 49.4-20.4c20.3 0 37.7 7.9 52.1 23.6 14.1-15.7 31.6-23.6 52.6-23.6 19 0 35.4 6.8 49.1 20.4z" fill="#fff" stroke="#fff" stroke-width="21.0566"/></g><path d="m342.7 82.4c-28.9.5-52 24.3-51.5 53.3.2 10.2 3.3 19.6 8.4 27.6-.5 3.1 1.5 7.3.7 11.6-.3 1.8-.9 3.5-1.5 5.1-.9 2.4-.7 4.9.4 7.3.7 1.4 2.6 2.1 4.6 1.8 5.1-.8 10.1-2 14.8-4.3.3-.2.7-.3 1-.5 1.5-.8 3-1.1 4.6-.8 2.1.9 4.3 1.6 6.6 2.1 3.1 1 5.1 1.5 6.1 1.2 2.5.3 5 .5 7.6.4 28.9-.5 52-24.3 51.5-53.3s-24.4-52-53.3-51.5z" fill="#59c1db"/><path d="m372.1 86.1c-25-13.8-56.5-4.6-70.3 20.4-8.5 15.4-8.3 33.3-1 48 0 2.4.2 5.3-.7 7.9-.6 1.7-1.4 3.2-2.3 4.7-1.3 2.2-1.5 4.7-.8 7.2.4 1.4 2.2 2.5 4.1 2.5 5.1.1 10.2-.3 15.2-1.8.4-.1.7-.2 1.1-.4.4-.1.7-.2 1.1-.3 1.2.8 2.5 1.6 3.8 2.4 25 13.8 56.5 4.6 70.3-20.4s4.5-56.4-20.5-70.2z" fill="#fff"/><path d="m318.8 140.7c-.1 0-.2-.1-.4-.1-.3-.1-.5-.2-.8-.4-4.9-2-7.4-5.7-6.7-10.2.6-3.8 3.5-6.7 7.4-7.3 3.7-.5 7.5 1.5 9.1 4.8.4.7.6 1.5.9 2.3.4 3-.3 5.6-2.4 7.8-1.9 2.2-4.4 2.8-7.1 3.1z" fill="#2a317a"/><path d="m345 140.7c-6.4-2.3-9.2-6.4-6.8-12.8 1.3-3.4 4.9-5.4 8.4-5.1 3.6.3 6.8 2.9 7.8 6.4.1.5.3 1 .5 1.6.1 5.8-3.9 9.8-9.9 9.9z" fill="#2a317a"/><path d="m369.2 139.9c-1.1-1.1-2.7-1.5-3.6-2.9-2.3-3.4-2.5-7.2-.2-10.4 2.3-3.3 5.8-4.5 9.8-3.3 3.5 1 5.9 4.3 6 8.3 0 .3 0 .5.1.8-.6 5.7-4.9 8.6-11.3 7.9h-.1c-.2-.2-.4-.3-.7-.4z" fill="#2a317a"/><path d="m370 140.2c7 .9 11.5-2.9 11.3-9.7 5.2 3.6 3.3 7.9-.1 11-2.5 2.4-5.3 3.3-8.4.8-.9-.8-2.6-.5-2.8-2.1z" fill="#59c1db"/><path d="m318.8 140.7c2.7-.3 5.2-.9 7.2-3 2.1-2.2 2.8-4.8 2.4-7.8 3.8 4.1 4.4 6.3.8 10.4-.7.8-1.6 1.5-2.5 2.1-3 2-5.7 1.4-7.9-1.7z" fill="#59c1db"/><path d="m345 140.7c5.9-.1 10-4.1 10-9.9 1.9.9 3.4 4.4 2.6 6.2-1.2 2.7-3.1 4.7-5.6 6.2-2.1 1.1-4.8.1-7-2.5z" fill="#59c1db"/></svg>