<?xml version="1.0" encoding="utf-8"?>
<!-- Generator: Adobe Illustrator 24.0.1, SVG Export Plug-In . SVG Version: 6.00 Build 0)  -->
<svg version="1.1" id="Capa_1" xmlns="http://www.w3.org/2000/svg" xmlns:xlink="http://www.w3.org/1999/xlink" x="0px" y="0px"
	 viewBox="0 0 1043 322" style="enable-background:new 0 0 1043 322;" xml:space="preserve">
<style type="text/css">
	.st0{fill:#2A317A;}
	.st1{fill:#2A317A;stroke:#2A317A;stroke-width:2.2387;stroke-miterlimit:10;}
	.st2{fill:#59B9D3;stroke:#59B9D3;stroke-width:18.4245;stroke-miterlimit:10;}
	.st3{fill:#2A317A;stroke:#2A317A;stroke-width:29.1282;stroke-miterlimit:10;}
	.st4{fill:#59B9D3;stroke:#59B9D3;stroke-width:21.0566;stroke-miterlimit:10;}
	.st5{fill:#59C1DB;}
	.st6{fill:#FFFFFF;}
</style>
<g>
	<g>
		<path class="st0" d="M11,248.2v-227c0-2.2,0.8-4.1,2.3-5.6c1.5-1.5,3.4-2.3,5.6-2.3h90.6c34.7,0,63.2,10.2,85.3,30.5
			c11.9,11.1,21,24.2,27.2,39.5c6.2,15.3,9.3,32.4,9.3,51.4c0,19-3.1,36.2-9.3,51.6c-6.2,15.4-15.3,28.6-27.2,39.7
			c-11.1,10-23.7,17.5-38,22.6c-14.3,5.1-30,7.6-47.3,7.6H19c-2.2,0-4.1-0.8-5.6-2.3C11.8,252.3,11,250.4,11,248.2z M84.7,195.1
			h24.9c6.2,0,12.6-0.8,19.2-2.3c6.6-1.5,12.6-4.5,17.9-8.8c5.3-4.3,9.7-10.4,13.1-18.3c3.4-7.8,5.1-18.1,5.1-30.7
			s-1.7-22.8-5.1-30.7c-3.4-7.8-7.9-13.9-13.3-18.3c-5.4-4.3-11.4-7.2-17.9-8.8c-6.5-1.5-12.9-2.3-19.1-2.3H84.7
			c-2.2,0-4.1,0.8-5.6,2.3c-1.5,1.5-2.3,3.4-2.3,5.6v104.2c0,2.2,0.8,4.1,2.3,5.6C80.6,194.3,82.5,195.1,84.7,195.1z"/>
	</g>
	<path class="st1" d="M508.9,148.3h-3.1h-3.1h-29.4c-8.6,0-12.8-3.9-12.8-11.7v-16.9h29h3.1h2.9h29.2c9.4,0,14.2,4.4,14.2,13.3v15.3
		H508.9z"/>
	<path class="st2" d="M1010.3,39.1c10.5,0,15.7,5.2,15.7,15.7v77.7v71.8c0,13.8-1.3,25.8-3.9,36.2c-2.6,10.3-9.3,21.6-20.2,33.7
		c-19.3,21.3-42.5,32-69.4,32c-22.6,0-41.6-6.1-57.1-18.4s-26.1-27.8-32-46.5h37.9c10.5,20,27.5,30,51.2,30
		c17.1,0,31.8-6.9,44.3-20.7c7.5-8.5,11.9-15.7,13-21.6c1.1-5.9,1.7-13.8,1.7-23.6c-17.7,13.8-37.4,20.7-59,20.7
		c-25.9,0-48-9.1-66.2-27.3c-18.2-18.2-27.3-40.3-27.3-66.2V54.8c0-10.5,5.2-15.7,15.7-15.7h18.7v93.5c0,16.4,5.7,30.3,17.2,41.8
		c11.5,11.5,25.4,17.2,41.8,17.2c16.1,0,29.9-5.7,41.6-17.2c11.6-11.5,17.5-25.4,17.5-41.8V85.8V39.1H1010.3z"/>
	<path class="st3" d="M408.9,70.4C391.2,52.8,370.2,44,345.6,44c-24.9,0-46,8.8-63.5,26.4c-17.5,17.6-26.2,38.7-26.2,63.2
		c0,24.9,8.7,46,26.2,63.5c17.5,17.5,38.6,26.2,63.5,26.2c24.5,0,45.6-8.7,63.2-26.2c17.6-17.5,26.4-38.6,26.4-63.5
		C435.3,109.1,426.5,88.1,408.9,70.4z M385.5,173.8c-11.2,11-24.5,16.5-39.9,16.5c-15.7,0-29.1-5.5-40.1-16.5
		c-11-11-16.5-24.4-16.5-40.1c0-15.4,5.5-28.7,16.5-39.9c11-11.2,24.4-16.8,40.1-16.8c15.4,0,28.7,5.6,39.9,16.8
		c11.2,11.2,16.8,24.5,16.8,39.9C402.2,149.4,396.7,162.8,385.5,173.8z"/>
	<path class="st4" d="M785,61.1c13.8,13.6,20.7,30.1,20.7,49.4v1.7v1.2v21.9v7.4v5.9v17v46.2c0,10.5-5.4,15.7-16.2,15.7h-18.7v-56.8
		v-57.3c0-10.5-3.4-19.5-10.3-27.1c-6.9-7.5-15.1-11.3-24.6-11.3c-9.8,0-18.1,3.8-24.8,11.3c-6.7,7.5-10.1,16.6-10.1,27.1v30.3v12.5
		v12.5c-0.3,18.2-0.6,36.5-0.9,54.7c-11.6,0-23.2,0-34.8,0c0.3-18.1,0.5-36.1,0.8-54.2v-11.6V146v-30v-2.5c0-9.8-3.3-18.7-9.8-26.6
		c-6.6-7.9-14.9-11.8-25.1-11.8c-9.8,0-18.1,3.8-24.8,11.3c-6.7,7.5-10.1,16.6-10.1,27.1v57.3v56.8h-18.7
		c-10.8,0-16.2-5.2-16.2-15.7v-50.7v-50.7c0-19.3,6.8-35.8,20.4-49.4c13.6-13.6,30.1-20.4,49.4-20.4c20.3,0,37.7,7.9,52.1,23.6
		c14.1-15.7,31.6-23.6,52.6-23.6C754.9,40.7,771.3,47.5,785,61.1z"/>
	<g>
		<path class="st5" d="M342.7,82.4c-28.9,0.5-52,24.3-51.5,53.3c0.2,10.2,3.3,19.6,8.4,27.6c-0.5,3.1,1.5,7.3,0.7,11.6
			c-0.3,1.8-0.9,3.5-1.5,5.1c-0.9,2.4-0.7,4.9,0.4,7.3c0.7,1.4,2.6,2.1,4.6,1.8c5.1-0.8,10.1-2,14.8-4.3c0.3-0.2,0.7-0.3,1-0.5
			c1.5-0.8,3-1.1,4.6-0.8c2.1,0.9,4.3,1.6,6.6,2.1c3.1,1,5.1,1.5,6.1,1.2c2.5,0.3,5,0.5,7.6,0.4c28.9-0.5,52-24.3,51.5-53.3
			S371.6,81.9,342.7,82.4z"/>
		<path class="st6" d="M372.1,86.1c-25-13.8-56.5-4.6-70.3,20.4c-8.5,15.4-8.3,33.3-1,48c0,2.4,0.2,5.3-0.7,7.9
			c-0.6,1.7-1.4,3.2-2.3,4.7c-1.3,2.2-1.5,4.7-0.8,7.2c0.4,1.4,2.2,2.5,4.1,2.5c5.1,0.1,10.2-0.3,15.2-1.8c0.4-0.1,0.7-0.2,1.1-0.4
			c0.4-0.1,0.7-0.2,1.1-0.3c1.2,0.8,2.5,1.6,3.8,2.4c25,13.8,56.5,4.6,70.3-20.4S397.1,99.9,372.1,86.1z"/>
		<g>
			<path class="st0" d="M318.8,140.7c-0.1,0-0.2-0.1-0.4-0.1c-0.3-0.1-0.5-0.2-0.8-0.4c-4.9-2-7.4-5.7-6.7-10.2
				c0.6-3.8,3.5-6.7,7.4-7.3c3.7-0.5,7.5,1.5,9.1,4.8c0.4,0.7,0.6,1.5,0.9,2.3c0.4,3-0.3,5.6-2.4,7.8
				C324,139.8,321.5,140.4,318.8,140.7z"/>
			<path class="st0" d="M345,140.7c-6.4-2.3-9.2-6.4-6.8-12.8c1.3-3.4,4.9-5.4,8.4-5.1c3.6,0.3,6.8,2.9,7.8,6.4
				c0.1,0.5,0.3,1,0.5,1.6C355,136.6,351,140.6,345,140.7z"/>
			<path class="st0" d="M369.2,139.9c-1.1-1.1-2.7-1.5-3.6-2.9c-2.3-3.4-2.5-7.2-0.2-10.4c2.3-3.3,5.8-4.5,9.8-3.3
				c3.5,1,5.9,4.3,6,8.3c0,0.3,0,0.5,0.1,0.8c-0.6,5.7-4.9,8.6-11.3,7.9c0,0-0.1,0-0.1,0C369.7,140.1,369.5,140,369.2,139.9z"/>
			<path class="st5" d="M370,140.2c7,0.9,11.5-2.9,11.3-9.7c5.2,3.6,3.3,7.9-0.1,11c-2.5,2.4-5.3,3.3-8.4,0.8
				C371.9,141.5,370.2,141.8,370,140.2z"/>
			<path class="st5" d="M318.8,140.7c2.7-0.3,5.2-0.9,7.2-3c2.1-2.2,2.8-4.8,2.4-7.8c3.8,4.1,4.4,6.3,0.8,10.4
				c-0.7,0.8-1.6,1.5-2.5,2.1C323.7,144.4,321,143.8,318.8,140.7z"/>
			<path class="st5" d="M345,140.7c5.9-0.1,10-4.1,10-9.9c1.9,0.9,3.4,4.4,2.6,6.2c-1.2,2.7-3.1,4.7-5.6,6.2
				C349.9,144.3,347.2,143.3,345,140.7z"/>
		</g>
	</g>
</g>
</svg>
